<svg xmlns="http://www.w3.org/2000/svg" width="82.194" height="14.964" viewBox="0 0 82.194 14.964">
  <path id="Path_116" data-name="Path 116" d="M47.842,28.484H45.123l-.343,1.3-.343-1.3h-.626a.909.909,0,0,1,0-1.817h4.022a.909.909,0,0,1,.007,1.817m0-2.555H43.819a1.646,1.646,0,1,0,0,3.292h.171l.8,2.041.8-2.041h2.324a1.647,1.647,0,0,0,1.646-1.646,1.762,1.762,0,0,0-1.713-1.646m30.04,2.1h2.383v2.778h1.929v1.587H80.265v3.344c0,.566.171.737.8.737a6.843,6.843,0,0,0,1.132-.06V38a17.651,17.651,0,0,1-1.87.112c-2.264,0-2.436-.849-2.436-2.153V32.335H76.414V30.808h1.475ZM16.156,32.446a1.888,1.888,0,0,0-2.041,2.1V38H11.731v-7.2H14v1.02a3.689,3.689,0,0,1,2.95-1.244c1.244,0,3.061.454,3.061,2.607V38H17.623V34.279c.007,0-.015-1.832-1.467-1.832Zm9.75,3.8c1.02,0,2.264-.343,2.264-1.981s-1.244-1.981-2.264-1.981-2.264.343-2.264,1.981,1.244,1.981,2.264,1.981m2.376-5.437h2.264v6.629c0,2.5-1.587,3.456-4.588,3.456-1.758,0-4.193-.223-4.424-2.383h2.5c.171.566.626.909,1.981.909,1.192,0,2.153-.283,2.153-2.041v-.566a3.8,3.8,0,0,1-2.89,1.08c-2.83,0-4.082-1.758-4.082-3.568,0-1.981,1.244-3.568,4.305-3.568a3.374,3.374,0,0,1,2.719,1.08V30.808Zm3.687-2.555h2.383V29.9H31.969Zm0,2.555h2.383V38H31.969ZM69.83,35.791c.112.626.507,1.02,1.758,1.02,1.08,0,1.7-.283,1.7-.8,0-.395-.223-.566-1.363-.737l-2.153-.283c-1.527-.223-2.384-.678-2.384-2.041,0-1.929,1.981-2.436,3.91-2.436,3.285,0,4.082,1.08,4.253,2.436H72.943c-.112-.737-.909-.961-1.587-.961-.626,0-1.527.06-1.527.737,0,.343.171.566,1.192.678l1.646.171c2.384.223,3.173.961,3.173,2.212,0,2.153-2.383,2.436-4.424,2.436-2.719,0-4.082-.8-4.253-2.5H69.83ZM42.456,33.638a2.014,2.014,0,0,0-2.212-1.646,2.081,2.081,0,0,0-2.264,1.587h4.477ZM44.78,35.85c-.678,1.7-2.324,2.436-4.477,2.436-2.83,0-4.76-1.132-4.76-3.851s1.929-3.851,4.76-3.851c3.121,0,4.588,1.587,4.588,4.305v.223H37.98c0,.678.678,1.758,2.324,1.758a2.088,2.088,0,0,0,1.981-.961h2.5Zm3.344-.06c.112.626.506,1.02,1.758,1.02,1.08,0,1.7-.283,1.7-.8,0-.395-.223-.566-1.363-.737l-2.153-.283c-1.527-.223-2.383-.678-2.383-2.041,0-1.929,1.981-2.436,3.91-2.436,3.285,0,4.082,1.08,4.253,2.436H51.238c-.112-.737-.909-.961-1.586-.961-.626,0-1.527.06-1.527.737,0,.343.171.566,1.192.678l1.7.223c2.384.223,3.173.961,3.173,2.212,0,2.153-2.384,2.436-4.424,2.436-2.719,0-4.082-.8-4.253-2.5.007.007,2.614.007,2.614.007ZM63.6,30.808h2.384V38H63.6Zm0-2.555h2.384V29.9H63.6ZM59.4,27.18h2.384V38.063H59.4ZM5.78,30.525l-1.475,3.8h3Zm2.212,5.5H3.568L2.778,38H0l4.194-9.519H7.314l4.194,9.579H8.73Z" transform="translate(0 -25.929)" fill="#626162" opacity="0.999"/>
</svg>
