<?xml version="1.0" encoding="utf-8"?>
<!-- Generator: Adobe Illustrator 22.1.0, SVG Export Plug-In . SVG Version: 6.00 Build 0)  -->
<svg version="1.1" id="Layer_1" xmlns="http://www.w3.org/2000/svg" xmlns:xlink="http://www.w3.org/1999/xlink" x="0px" y="0px"
	 viewBox="0 0 41.1 16.7" style="enable-background:new 0 0 41.1 16.7;" xml:space="preserve">
<style type="text/css">
	.st0{opacity:0.999;}
	.st1{fill:#626162;}
</style>
<g id="Group_133" class="st0">
	<path id="Path_102" class="st1" d="M2.8,6.9L1.7,8.5c-0.6,0.9-0.4,2,0.4,2.7l2.1,1.5c0.4,0.3,0.4,0.5,0.2,0.8l0.3,0.2l1.1-1.5
		c0.7-0.9,0.6-2.1-0.3-2.8c0,0,0,0-0.1-0.1L3.3,7.9C3,7.7,3,7.4,3.1,7.1L2.8,6.9L2.8,6.9z M4.7,0L2.9,2.4c-0.8,1.3-0.6,3,0.6,3.9
		l2.9,2.1C7,9.1,7.1,9.9,6.6,10.6l0.2,0.2l2-2.8c1-1.3,0.7-3.2-0.6-4.2c0,0,0,0,0,0L5.2,1.6C4.8,1.3,4.6,0.7,4.9,0.3c0,0,0,0,0-0.1
		L4.7,0L4.7,0z M0,15.3h2.3l0.4,1.4h3.8L7,15.3h2.3l-0.3-1H0.3L0,15.3L0,15.3z"/>
	<g id="Group_114" transform="translate(12.459 5.593)">
		<path id="Path_103" class="st1" d="M7,5c0.8-0.4,1.4-1.3,1.4-2.2C8.4,0.8,6.7,0,5,0H0v10.6h4.9c2.1,0,4.3-0.9,4-3.3
			C8.7,5.8,8.1,5.5,7,5z M2.2,2h2.6C5.4,2,6,2.4,6.1,3c0.1,0.6-0.4,1.2-1,1.2c0,0-0.1,0-0.1,0H2.2L2.2,2z M5.1,8.6H2.2V6.1h2.9
			C7.2,6.2,7.1,8.6,5.1,8.6z"/>
		<path id="Path_104" class="st1" d="M16.9,5c0.8-0.4,1.4-1.3,1.4-2.2c0-2-1.6-2.8-3.4-2.8h-5v10.6h4.9c2.1,0,4.3-0.9,4-3.3
			C18.5,5.8,18,5.5,16.9,5z M12.1,2h2.6c0.6-0.1,1.2,0.4,1.2,1c0.1,0.6-0.4,1.2-1,1.2c0,0-0.1,0-0.1,0h-2.7L12.1,2z M15,8.6h-2.9
			V6.1H15C17.1,6.2,17,8.6,15,8.6z"/>
		<path id="Path_105" class="st1" d="M26.7,5c0.8-0.4,1.4-1.3,1.4-2.2c0-2-1.6-2.8-3.4-2.8h-5v10.6h4.9c2.1,0,4.3-0.9,4-3.3
			C28.4,5.8,27.8,5.5,26.7,5z M22,2h2.6c0.6-0.1,1.2,0.4,1.2,1c0.1,0.6-0.4,1.2-1,1.2c0,0-0.1,0-0.1,0H22L22,2z M24.8,8.6H22V6.1
			h2.9C27,6.2,26.8,8.6,24.8,8.6z"/>
	</g>
</g>
</svg>
