<svg xmlns="http://www.w3.org/2000/svg" width="17.941" height="15.378" viewBox="0 0 17.941 15.378">
  <g id="Group_139" data-name="Group 139" transform="translate(-205 -402)">
    <path id="Fill_1" data-name="Fill 1" d="M16.344,3.417H1.6A1.655,1.655,0,0,1,0,1.709,1.655,1.655,0,0,1,1.6,0H16.344a1.656,1.656,0,0,1,1.6,1.709,1.656,1.656,0,0,1-1.6,1.708" transform="translate(205 413.96)" fill="#c6c5c5"/>
    <path id="Fill_3" data-name="Fill 3" d="M16.344,3.417H1.6A1.655,1.655,0,0,1,0,1.708,1.655,1.655,0,0,1,1.6,0H16.344a1.656,1.656,0,0,1,1.6,1.708,1.656,1.656,0,0,1-1.6,1.709" transform="translate(205 407.98)" fill="#c6c5c5"/>
    <path id="Fill_3-2" data-name="Fill 3" d="M16.344,3.417H1.6A1.655,1.655,0,0,1,0,1.708,1.655,1.655,0,0,1,1.6,0H16.344a1.656,1.656,0,0,1,1.6,1.708,1.656,1.656,0,0,1-1.6,1.709" transform="translate(205 402)" fill="#c6c5c5"/>
  </g>
</svg>
