<?xml version="1.0" encoding="utf-8"?>
<!-- Generator: Adobe Illustrator 22.1.0, SVG Export Plug-In . SVG Version: 6.00 Build 0)  -->
<svg version="1.1" id="Capa_1" xmlns="http://www.w3.org/2000/svg" xmlns:xlink="http://www.w3.org/1999/xlink" x="0px" y="0px"
	 viewBox="0 0 512 512" style="enable-background:new 0 0 512 512;" xml:space="preserve">
<style type="text/css">
	.st0{fill:#FFFFFF;}
</style>
<g>
	<path class="st0" d="M181,161c33.3,0,55-34.8,55-70c0-35.3-21.8-70-55-70c-33.3,0-55,34.8-55,70C126,126.3,147.8,161,181,161z
		 M181,40.9c19,0,35,22.9,35,50s-16,50-35,50s-35-22.9-35-50S162,40.9,181,40.9z"/>
	<path class="st0" d="M331,161c33.3,0,55-34.8,55-70c0-35.3-21.8-70-55-70c-33.3,0-55,34.8-55,70C276,126.3,297.8,161,331,161z
		 M331,40.9c19,0,35,22.9,35,50s-16,50-35,50s-35-22.9-35-50S312,40.9,331,40.9z"/>
	<path class="st0" d="M94.1,271.6c28.9-16.7,30.2-57.7,12.6-88.1c-17.7-30.6-53.9-49.7-82.6-33.1C-4.7,167-6.1,207.9,11.5,238.5
		C29.1,269,65.5,288.2,94.1,271.6z M34.1,167.7c19.2-11.1,44,6.2,55.3,25.8c0,0,0,0,0,0c11.3,19.5,13.9,49.7-5.3,60.8
		c-19.2,11.1-44-6.3-55.3-25.8C17.6,209,14.9,178.8,34.1,167.7z"/>
	<path class="st0" d="M417.9,271.6c28.8,16.6,65-2.6,82.6-33.1c17.8-30.7,16-71.6-12.6-88.1c-28.9-16.7-65.1,2.7-82.6,33.1
		C387.5,214.1,389.1,255,417.9,271.6z M422.5,193.5c11.2-19.4,36.1-36.9,55.3-25.8c19.2,11.1,16.6,41.3,5.3,60.8
		c-11.3,19.5-36.1,36.9-55.3,25.8C408.7,243.2,411.2,213.1,422.5,193.5z"/>
	<circle class="st0" cx="423" cy="438" r="10"/>
	<path class="st0" d="M67.2,405.4c5.7,42,35.4,76,80.8,84c28.9,5.1,56.5-2.2,78.2-18.5c17.6-13.2,42.1-13.2,59.7,0
		c22.4,16.9,50.2,23.5,78.2,18.5c11.5-2,22.2-5.7,31.8-11c4.8-2.7,6.6-8.7,4-13.6c-2.7-4.8-8.7-6.6-13.6-4
		c-7.7,4.2-16.3,7.2-25.6,8.8c-22.5,4-44.8-1.3-62.7-14.8c-24.7-18.6-59.1-18.6-83.8,0c-17.9,13.5-40.2,18.8-62.7,14.8
		c-41.7-7.3-60.6-39.4-64.4-67c-4.9-35.9,12-68.7,43-83.5c14.3-6.8,25.8-18,32.2-31.4C182.4,246,217.5,221,256,221
		s73.6,25,93.8,66.9c6.5,13.4,17.9,24.5,32.2,31.4c28.2,13.5,45,42.3,43.7,75.2c-0.2,5.5,4.1,10.2,9.6,10.4
		c5.5,0.2,10.2-4.1,10.4-9.6c1.6-41-19.5-77-55.1-94c-10.2-4.9-18.4-12.7-22.8-22C346,234,305.1,201,256,201
		c-49.2,0-90,33.1-111.8,78.2c-4.5,9.3-12.6,17.1-22.8,22C80.7,320.6,61.5,363.5,67.2,405.4L67.2,405.4z"/>
</g>
</svg>
