<svg xmlns="http://www.w3.org/2000/svg" width="78.844" height="15.605" viewBox="0 0 78.844 15.605">
  <g id="Group_130" data-name="Group 130" opacity="0.999">
    <path id="Path_85" data-name="Path 85" d="M311.174,615.067a3.6,3.6,0,0,0-1.6.431v4.921a10.376,10.376,0,0,0,1.15.043c1.562,0,1.777-.716,1.777-1.715V616.4c0-.738-.245-1.331-1.33-1.331ZM300.8,614.8c-1.084,0-1.332.6-1.332,1.332v.414h2.662v-.414C302.126,615.394,301.879,614.8,300.8,614.8Zm-20.1,5.122a.777.777,0,0,0,.883.886,3.236,3.236,0,0,0,1.513-.431v-1.167h-1.424c-.674,0-.971.125-.971.712Zm40.576-4.854c-1.086,0-1.462.593-1.462,1.331v2.693c0,.74.376,1.334,1.462,1.334s1.462-.594,1.462-1.334V616.4C322.73,615.66,322.351,615.067,321.269,615.067Zm-45.9,7.873h-3.192v-7.727h-1.595v-2.662h1.6v-1.6c0-2.172.9-3.464,3.459-3.464h2.13v2.663h-1.332c-1,0-1.062.372-1.062,1.067l0,1.333h2.412l-.282,2.663h-2.13v7.727Zm10.91.02H283.62l-.115-.673a6.1,6.1,0,0,1-3.014.782,2.831,2.831,0,0,1-2.99-3.106c0-2.127,1.212-2.886,3.38-2.886h2.207v-.46c0-1.086-.124-1.4-1.794-1.4h-2.729l.267-2.662h2.984c3.663,0,4.466,1.157,4.466,4.088v6.321Zm9.047-7.552a15.226,15.226,0,0,0-2.928-.346c-1.431,0-1.863.316-1.863,1.531v2.3c0,1.215.432,1.532,1.863,1.532a15.2,15.2,0,0,0,2.928-.349v2.6a14.1,14.1,0,0,1-3.193.411c-3.427,0-4.79-1.8-4.79-4.406v-1.865c0-2.606,1.362-4.411,4.79-4.411a14.028,14.028,0,0,1,3.193.413v2.6Zm9.99,3.269h-5.854v.215c0,1.215.433,1.532,1.863,1.532a18.634,18.634,0,0,0,3.724-.348v2.6a16.769,16.769,0,0,1-3.988.411c-3.428,0-4.791-1.8-4.791-4.406v-2.133c0-2.278,1.011-4.144,4.524-4.144s4.522,1.844,4.522,4.144Zm10.377.049c0,2.517-.719,4.352-5.076,4.352a24.1,24.1,0,0,1-4.233-.405V608.288l3.191-.533v5.032a7.247,7.247,0,0,1,2.395-.386c3.192,0,3.723,1.431,3.723,3.73v2.6Zm10.23.055c0,2.171-.9,4.277-4.646,4.277s-4.665-2.106-4.665-4.277v-2.1c0-2.172.913-4.278,4.665-4.278s4.646,2.106,4.646,4.278v2.1Zm10.223,0c0,2.171-.9,4.277-4.646,4.277s-4.665-2.106-4.665-4.277v-2.1c0-2.172.913-4.278,4.665-4.278s4.646,2.106,4.646,4.278v2.1Zm10.491,4.159H343.18l-2.926-4.884v4.884h-3.192V608.287l3.192-.532v9.433l2.926-4.637h3.459l-3.194,5.06Zm-15.149-7.873c-1.084,0-1.46.593-1.46,1.331v2.693c0,.74.376,1.334,1.46,1.334s1.466-.594,1.466-1.334V616.4c0-.738-.383-1.331-1.466-1.331Zm16.971,6.051a.988.988,0,1,1-.979.986.971.971,0,0,1,.979-.986Zm0,.153a.835.835,0,0,0,0,1.668.836.836,0,0,0,0-1.668Zm-.184,1.406H348.1v-1.1a2.031,2.031,0,0,1,.311-.026.584.584,0,0,1,.342.083.265.265,0,0,1,.1.227.274.274,0,0,1-.214.268v.008c.1.018.161.1.184.266a.912.912,0,0,0,.069.272h-.183a.82.82,0,0,1-.074-.281.205.205,0,0,0-.237-.192h-.121v.474Zm0-.609h.127c.144,0,.266-.053.266-.189,0-.1-.069-.192-.266-.192a.905.905,0,0,0-.127.008v.373Z" transform="translate(-270.583 -607.488)" fill="#626162"/>
  </g>
</svg>
