<svg xmlns="http://www.w3.org/2000/svg" width="57.816" height="18.872" viewBox="0 0 57.816 18.872">
  <g id="Group_131" data-name="Group 131" transform="translate(0)" opacity="0.999">
    <path id="Path_96" data-name="Path 96" d="M894.108,352h.514a7.015,7.015,0,0,1,4.8,2.027c-.466.475-.941.931-1.4,1.407a5.247,5.247,0,0,0-8.808,3.162,5.4,5.4,0,0,0,1.174,4.171,5.191,5.191,0,0,0,3.783,1.862,5.035,5.035,0,0,0,3.764-1.29,4.108,4.108,0,0,0,1.251-2.677c-1.61,0-3.221.01-4.831,0v-2h6.781a6.875,6.875,0,0,1-1.785,6.092,6.629,6.629,0,0,1-4.123,1.853,7.573,7.573,0,0,1-4.336-.854,7.465,7.465,0,0,1-3.463-3.948,7.151,7.151,0,0,1-.048-4.841,7.384,7.384,0,0,1,2.668-3.541A7.614,7.614,0,0,1,894.108,352Z" transform="translate(-886.987 -352)" fill="#626162"/>
    <path id="Path_97" data-name="Path 97" d="M1060.412,353.9h2.076v13.853c-.688,0-1.387.01-2.076-.01.01-4.608,0-9.225,0-13.843Z" transform="translate(-1014.392 -353.397)" fill="#626162"/>
    <path id="Path_98" data-name="Path 98" d="M947.193,371.758a4.875,4.875,0,0,1,3.725.8,4.555,4.555,0,0,1,1.833,2.91,4.691,4.691,0,0,1-4.928,5.626,4.722,4.722,0,0,1-3.531-1.892,4.848,4.848,0,0,1-.64-4.4,4.6,4.6,0,0,1,3.541-3.037m.291,1.843a2.607,2.607,0,0,0-1.358.863,3.077,3.077,0,0,0,.155,4.006,2.583,2.583,0,0,0,2.309.718,2.612,2.612,0,0,0,1.8-1.329,3.068,3.068,0,0,0-.524-3.647,2.617,2.617,0,0,0-2.386-.611Z" transform="translate(-928.422 -366.452)" fill="#626162"/>
    <path id="Path_99" data-name="Path 99" d="M985.952,371.756a4.716,4.716,0,0,1,4.617,7.6,4.8,4.8,0,0,1-7.518-.155,4.9,4.9,0,0,1-.611-4.5,4.607,4.607,0,0,1,3.512-2.939m.291,1.843a2.653,2.653,0,0,0-1.358.854,3.082,3.082,0,0,0,.107,3.968,2.6,2.6,0,0,0,2.367.766,2.661,2.661,0,0,0,1.8-1.329,3.083,3.083,0,0,0-.543-3.657,2.6,2.6,0,0,0-2.376-.6Z" transform="translate(-956.898 -366.45)" fill="#626162"/>
    <path id="Path_100" data-name="Path 100" d="M1023.044,372.318a3.966,3.966,0,0,1,3.8-.291,3.622,3.622,0,0,1,.99.728c.01-.262,0-.534.01-.805.65.01,1.3,0,1.959.01v8.556a5.112,5.112,0,0,1-1.271,3.6,4.624,4.624,0,0,1-3.987,1.145,4.511,4.511,0,0,1-3.4-2.706c.582-.281,1.193-.5,1.795-.766a2.668,2.668,0,0,0,1.892,1.63,2.514,2.514,0,0,0,2.425-.776,3.882,3.882,0,0,0,.572-2.648,3.443,3.443,0,0,1-1.581.97,4.263,4.263,0,0,1-3.871-1,4.775,4.775,0,0,1,.659-7.644m2.008,1.242a2.55,2.55,0,0,0-1.523.883,3.1,3.1,0,0,0,.01,3.89,2.538,2.538,0,0,0,2.183.892,2.464,2.464,0,0,0,1.853-1.232,3.273,3.273,0,0,0-.33-3.667,2.387,2.387,0,0,0-2.192-.766Z" transform="translate(-985.27 -366.449)" fill="#626162"/>
    <path id="Path_101" data-name="Path 101" d="M1073.559,372.8a4.379,4.379,0,0,1,4.452-.883,5.011,5.011,0,0,1,2.775,3.269c-2.1.873-4.2,1.736-6.306,2.61a2.5,2.5,0,0,0,1.339,1.261,2.718,2.718,0,0,0,2.561-.369,4.129,4.129,0,0,0,.718-.766c.534.359,1.067.708,1.6,1.067a4.749,4.749,0,0,1-7.5.475,4.972,4.972,0,0,1,.359-6.664m1.038,1.795a2.77,2.77,0,0,0-.456,1.63q2.11-.873,4.22-1.756a1.744,1.744,0,0,0-1.367-.96A2.479,2.479,0,0,0,1074.6,374.591Z" transform="translate(-1022.97 -366.432)" fill="#626162"/>
  </g>
</svg>
