<svg xmlns="http://www.w3.org/2000/svg" width="53.117" height="28.367" viewBox="0 0 53.117 28.367">
  <g id="Group_126" data-name="Group 126" transform="translate(0 0)" opacity="0.675">
    <path id="Path_111" data-name="Path 111" d="M106.6,7.719,109.1,12.8l5.611.815-4.06,3.958.958,5.588L106.6,20.526l-5.019,2.639.959-5.588-4.06-3.958,5.611-.815Z" transform="translate(-79.701 5.034)" fill="#626162"/>
    <path id="Path_112" data-name="Path 112" d="M118.809,7.673l2.509,5.085,5.611.815-4.06,3.958.959,5.588-5.019-2.639-5.019,2.639.958-5.588-4.06-3.958,5.611-.815Z" transform="translate(-73.812 5.013)" fill="#626162"/>
    <path id="Path_113" data-name="Path 113" d="M130.876,7.7l2.509,5.085L139,13.6l-4.06,3.958.958,5.588-5.019-2.639-5.019,2.639.959-5.588-4.06-3.958,5.611-.815Z" transform="translate(-113.379 -7.638)" fill="#626162"/>
    <path id="Path_114" data-name="Path 114" d="M143.091,7.66l2.509,5.085,5.611.815-4.06,3.958.959,5.588-5.019-2.639-5.019,2.639.958-5.588-4.06-3.958,5.611-.815Z" transform="translate(-107.49 -7.659)" fill="#626162"/>
    <path id="Path_115" data-name="Path 115" d="M93.928,7.832l2.509,5.085,5.611.815-4.06,3.958.959,5.588-5.019-2.639L88.91,23.278l.959-5.588-4.06-3.958,5.611-.815Z" transform="translate(-85.808 5.089)" fill="#626162"/>
  </g>
</svg>
