<?xml version="1.0" encoding="utf-8"?>
<!-- Generator: Adobe Illustrator 22.1.0, SVG Export Plug-In . SVG Version: 6.00 Build 0)  -->
<svg version="1.1" id="Capa_1" xmlns="http://www.w3.org/2000/svg" xmlns:xlink="http://www.w3.org/1999/xlink" x="0px" y="0px"
	 viewBox="0 0 512 512" style="enable-background:new 0 0 512 512;" xml:space="preserve">
<style type="text/css">
	.st0{fill:#FFFFFF;}
</style>
<g>
	<g>
		<path class="st0" d="M504.6,99.7l-6.6-6.6c-2.9-2.9-7.7-2.9-10.6,0c-2.9,2.9-2.9,7.7,0,10.6l6.6,6.6c1.9,1.9,3,4.4,3,7.1
			s-1,5.2-3,7.1c0,0,0,0-0.1,0.1c-1.9,1.9-4.4,2.9-7.1,2.9c-2.7,0-5.2-1-7.1-3l-32.9-32.9l-26.5-26.5l-32.9-32.9
			c-1.9-1.9-3-4.4-3-7.1s1-5.2,2.9-7.1c0,0,0.1-0.1,0.1-0.1c1.9-1.9,4.4-3,7.1-3s5.2,1,7.1,3l47.2,47.2c2.9,2.9,7.7,2.9,10.6,0
			c2.9-2.9,2.9-7.7,0-10.6L412.3,7.4c-4.7-4.7-11-7.4-17.8-7.4s-13,2.6-17.7,7.3c0,0-0.1,0.1-0.1,0.1c-4.7,4.7-7.4,11-7.4,17.8
			s2.6,13,7.4,17.8l27.6,27.6l-57.2,57.2l-21.6-21.6c-4.9-4.9-12.8-4.9-17.7,0L243,171c0,0,0,0,0,0s0,0,0,0l-66.5,66.5
			c-2.9,2.9-2.9,7.7,0,10.6c2.9,2.9,7.7,2.9,10.6,0l61.2-61.2l25.1,25.1c1.5,1.5,3.4,2.2,5.3,2.2c1.9,0,3.8-0.7,5.3-2.2
			c2.9-2.9,2.9-7.7,0-10.6L259,176.3l22.7-22.7l25.1,25.1c1.5,1.5,3.4,2.2,5.3,2.2s3.8-0.7,5.3-2.2c2.9-2.9,2.9-7.7,0-10.6
			L292.3,143l24.5-24.5l25.1,25.1l26.5,26.5l25.1,25.1l-232,232l-13.9-13.9c0,0,0,0,0,0l-49-49c0,0,0,0,0,0l-13.9-13.9l65.1-65.1
			c2.9-2.9,2.9-7.7,0-10.6c-2.9-2.9-7.7-2.9-10.6,0l-66.9,66.9c-4.9,4.9-4.9,12.8,0,17.7l10.3,10.3l-18.4,18.4
			c-4.9,4.9-4.9,12.8,0,17.7l15.6,15.6L2.2,499.2c-2.9,2.9-2.9,7.7,0,10.6c1.5,1.5,3.4,2.2,5.3,2.2s3.8-0.7,5.3-2.2l77.7-77.7
			l15.6,15.6c2.4,2.4,5.6,3.7,8.9,3.7c3.2,0,6.4-1.2,8.9-3.7l18.4-18.4l10.3,10.3c2.4,2.4,5.6,3.7,8.9,3.7c3.2,0,6.4-1.2,8.9-3.7
			l235.6-235.6c4.9-4.9,4.9-12.8,0-17.7l-21.6-21.6l57.2-57.2l27.6,27.6c4.9,4.9,11.3,7.3,17.8,7.3c6.4,0,12.9-2.4,17.8-7.3
			c0,0,0,0,0.1-0.1c4.7-4.7,7.3-11,7.3-17.7C512,110.7,509.4,104.4,504.6,99.7z M115,435.3l-19.1-19.1c0,0,0,0,0,0c0,0,0,0,0,0
			L76.7,397l16.6-16.6l38.3,38.3L115,435.3z M373.7,154.2l-15.9-15.9L415,81.1L430.9,97L373.7,154.2z"/>
	</g>
</g>
<g>
	<g>
		<path class="st0" d="M284.2,264.6l-36.9-36.9c-2.4-2.4-5.5-3.7-8.9-3.7s-6.5,1.3-8.9,3.7L115.2,342.2c-2.4,2.4-3.7,5.5-3.7,8.9
			c0,3.3,1.3,6.5,3.7,8.9l36.9,36.9c2.4,2.4,5.5,3.7,8.9,3.7c3.3,0,6.5-1.3,8.9-3.7l114.5-114.5c2.4-2.4,3.7-5.5,3.7-8.9
			C287.9,270.1,286.6,267,284.2,264.6z M160.9,384.4l-33.3-33.3l110.9-110.9l33.3,33.3L160.9,384.4z"/>
	</g>
</g>
</svg>
