<?xml version="1.0" encoding="utf-8"?>
<!-- Generator: Adobe Illustrator 23.0.1, SVG Export Plug-In . SVG Version: 6.00 Build 0)  -->
<svg version="1.1" id="Layer_1" xmlns="http://www.w3.org/2000/svg" xmlns:xlink="http://www.w3.org/1999/xlink" x="0px" y="0px"
	 viewBox="0 0 171.8 289.6" style="enable-background:new 0 0 171.8 289.6;" xml:space="preserve">
<style type="text/css">
	.st0{enable-background:new    ;}
	.st1{fill:#1588BF;}
	.st2{fill:none;stroke:#1588BF;stroke-width:2.16;stroke-miterlimit:10;}
</style>
<title>welcome-mobile</title>
<g id="Headline_will_go_her">
	<g class="st0">
		<path class="st1" d="M25.3,58.3c-0.3-0.1-0.6-0.3-0.7-0.6c-0.2-0.1-0.4-0.4-0.7-0.7c-0.2-0.3-0.4-0.6-0.5-0.9
			c-0.3-1.3-0.5-2.3-0.6-2.9c-0.1-0.8-0.2-1.8-0.4-3.2c-0.1-1.3-0.1-2.5-0.1-3.7c0.1-1.2,0.2-2.6,0.3-4.3c0.1-0.6,0.1-1,0.2-1.4
			c0-0.4,0-0.6-0.1-0.6c-0.1,0-0.3,0.4-0.6,1.2c-0.3,0.7-0.5,1.5-0.7,2.3c-0.1,0.3-0.2,0.7-0.3,1c-0.1,0.4-0.2,0.7-0.3,1.1
			c-0.5,1.8-1.5,4.7-3,8.5c-0.2,0.3-0.5,0.9-0.8,1.6c-0.7,1.4-1.2,2.4-1.7,3c-0.6,0.8-1.2,1.2-1.9,1.3c-0.5,0.1-0.9,0-1.3-0.3
			c-0.4-0.4-0.7-0.8-0.7-1.2c0-0.1,0-0.3,0-0.6c-0.2-0.7-0.3-2.1-0.4-4.3c-0.1-2.2-0.1-4-0.1-5.5c0-1.4,0.1-3.6,0.2-6.8l0.2-4.6
			c0.1-0.4,0.2-1.3,0.4-2.6l0.2-1.4c-0.1-0.5,0-0.9,0.2-1.2c0.2-0.3,0.4-0.4,0.6-0.5c0.4-0.1,0.7,0.1,1.1,0.4c0.5,0.4,0.8,1,0.9,1.7
			c0.1,0.6,0.1,1.1-0.1,1.8c-0.8,3.2-1.1,7.4-1.1,12.5c0,1.7,0,3.5,0.1,5.4c0.1,1.9,0.1,2.9,0.3,2.9c0.2,0,0.5-0.2,0.8-0.7
			c0.3-0.5,0.6-1,0.8-1.8c1.4-3.4,2.9-7.8,4.7-13.1c0-0.1,0.5-1.3,1.3-3.7l0.7-2c0.1-0.2,0.1-0.4,0.2-0.6c0.1-0.2,0.2-0.5,0.3-0.7
			c0.4-1.2,0.8-2.1,1-2.8c0.3-0.6,0.5-1,0.7-1.1c0.5,0,0.9,0,1.2,0.2c0.3,0.2,0.7,0.5,1,0.9c0,0.1,0.1,0.4,0,0.7
			c0,0.3-0.1,0.6-0.1,0.9c0,0.2-0.1,0.6-0.2,1.3c-0.1,0.7-0.2,1.4-0.2,2.1c-0.3,1.5-0.5,2.9-0.5,4.2c0,1-0.1,2-0.2,3
			c-0.1,2.2-0.2,4-0.2,5.4c0,1.4,0,2.7,0.2,3.8c0.2,1.4,0.4,2.4,0.7,2.8c0.1,0.3,0.4,0.4,0.7,0.3c0.2,0,0.4-0.2,0.6-0.4
			c0.6-1.2,1.2-2.2,1.6-3.1c0.4-0.9,0.8-1.9,1.2-3.1c1.2-3.4,2.5-8.1,4-13.9c0.5-2.7,0.8-4.4,1-5.3c0.2-0.8,0.5-1.4,0.9-1.7
			c0.1-0.1,0.3-0.2,0.5-0.2c0.3,0,0.6,0,0.9,0.2c0.1,0.1,0.3,0.3,0.4,0.5c0.1,0.2,0.2,0.5,0.2,0.8c-0.1,1-0.5,2.9-1.1,5.7
			c-0.6,2.8-1.1,4.8-1.4,6.1c-0.1,0.2-0.2,0.6-0.5,1.2c0,0.1-0.1,0.3-0.3,0.7c-0.1,0.3-0.2,0.6-0.2,0.8c0,0.3-0.5,1.8-1.5,4.7
			c-1,2.8-1.8,4.8-2.4,5.8c-0.7,1.3-1.5,2.4-2.3,3.2c-0.8,0.8-1.4,1.2-1.8,1.3C25.9,58.5,25.6,58.4,25.3,58.3z"/>
		<path class="st1" d="M44,54.3c0,0-0.3-0.1-0.9-0.3c-0.6-0.2-1.2-0.5-2-0.9l-0.9-0.4c-0.6-0.4-1-0.9-1.4-1.4c-0.3-0.5-0.7-1.2-1-2
			c-0.1-0.3-0.2-0.6-0.2-0.9c-0.1-0.8-0.1-1.8,0-2.9c0.1-1.1,0.3-2.1,0.5-2.8c0.4-1.6,1.3-4.1,2.9-7.7c0.1-0.1,0.2-0.2,0.2-0.3
			c0,0,0-0.1,0-0.1c0-0.2,0.2-1.1,0.8-2.8c0.4-0.6,0.6-1,0.5-1.4c0-0.2-0.1-0.3-0.2-0.4c-0.1-0.1,0.1-0.5,0.6-1.1
			c0.5-0.6,1.2-1.3,2.1-2c0.7-0.7,1.3-1.1,2.1-1.2c0.2,0,0.4,0,0.6,0c0.2,0,0.3,0.1,0.3,0.3c0,0.2,0.6,0,1.6-0.4
			c0.5-0.2,0.8-0.3,1-0.4c0.1-0.2,0.4-0.3,0.8-0.5c0.4-0.2,1.1-0.4,1.9-0.6c0.4,0,0.9-0.1,1.4-0.2c0.5-0.1,0.8-0.2,0.9-0.2
			c0.2-0.1,0.5-0.1,0.7,0c0.3,0.1,0.6,0.4,0.8,0.8c0.1,0.2,0.2,0.4,0.2,0.5c0,0.3-0.1,0.6-0.4,0.8c-0.3,0.2-1,0.5-1.9,0.7
			c-0.9,0.3-1.5,0.4-1.7,0.5c-1.5,0.4-3.1,0.9-4.7,1.6c-1,0.4-1.8,0.8-2.2,1.2c-0.4,0.4-0.9,1.1-1.3,2.2c-0.2,0.2-0.4,0.6-0.6,1.2
			c-0.2,0.6-0.4,1.3-0.6,1.9c-0.1,0.1-0.1,0.3-0.2,0.5c-0.1,0.2-0.2,0.4-0.3,0.6c-0.6,1.2-1.1,2.1-1.3,2.6c-0.2,0.5-0.3,0.8-0.2,0.9
			c0.1,0,0.3,0,0.5,0c0.2,0,0.5,0,0.6,0c0.2-0.2,0.6-0.3,1-0.5c0.4-0.1,0.7-0.2,0.9-0.3c4.2-1.8,6.6-2.8,7.2-3
			c0.2-0.2,0.4-0.3,0.7-0.4c0.5-0.1,1,0.2,1.5,0.8c0.1,0.2,0.2,0.3,0.2,0.4c0,0.2-0.1,0.5-0.5,0.8c-0.4,0.3-1,0.7-2.1,1.2
			c-1,0.5-2.3,1.1-3.7,1.7L46.9,41c-1.7,0.8-3.1,1.3-4.1,1.5c-0.9,0.1-1.3,0-1.4-0.5c-0.3-0.1-0.6,0.3-0.8,1.1
			c-0.2,0.8-0.4,1.8-0.5,2.9c-0.1,1.1-0.1,2.1,0.1,2.8c0.1,0.4,0.2,0.7,0.3,0.9c0.4,0.7,0.8,1.1,1.2,1.4c0.4,0.3,1.1,0.5,2,0.6
			c0.2,0,0.4,0,0.7,0c0.3,0,0.6-0.1,1-0.1c0.6-0.1,1.1-0.3,1.6-0.6c1.4-0.5,2.5-0.9,3.5-1.4c1-0.5,1.5-0.8,1.7-1
			c0.2-0.1,0.3-0.2,0.4-0.2c0.1,0,0.2-0.1,0.3-0.1l0,0.1c0,0,0,0,0,0c0.1,0,0.3-0.3,0.6-0.8c0.4-0.5,1-0.9,1.8-1.4
			c0.8-0.5,1.2-0.6,1.2-0.4c0.1,0.2,0.1,0.3,0.1,0.4c0.1,0.5-0.1,1.2-0.7,2c-0.5,0.8-1.3,1.7-2.3,2.5c-1.2,0.9-2.7,1.7-4.3,2.3
			c-1.6,0.6-3.2,1.1-4.7,1.3C44.3,54.3,44,54.3,44,54.3z"/>
	</g>
	<g class="st0">
		<path class="st1" d="M63.2,50.2c-1-0.7-1.7-1.4-2.1-2.3c-0.2-0.8-0.4-1.7-0.6-2.8c-0.1-0.7-0.1-1-0.1-1.1c0.1-0.1,0.1-0.2,0-0.5
			c-0.1-0.2,0-0.6,0.1-1.4c0.1-0.5,0.1-1,0-1.3c0-0.1,0.1-0.2,0.1-0.3s0.1-0.3,0.2-0.5c0.1-0.2,0.2-0.3,0.2-0.5c0-0.2,0-0.3-0.1-0.3
			l0,0c0-0.1,0-0.3,0-0.5c0-0.2,0.1-0.3,0.2-0.5c0.1-0.1,0.1-0.2,0.2-0.4c0-0.1,0.1-0.3,0.1-0.3c0-0.2,0.1-0.8,0.4-1.9
			c0.2-1.1,0.4-1.8,0.5-2l0-0.1c0.1-0.3,0.2-0.6,0.3-0.9c0-0.4,0.1-1,0.3-1.7c0.4-1.5,1-3.3,1.9-5.3c0.9-2,1.6-3.4,2.1-4.1
			c0.2-0.3,0.4-0.6,0.6-0.8c0.2-0.2,0.3-0.2,0.5-0.3c0.2,0,0.6,0.1,1,0.4c0.4,0.3,0.6,0.7,0.7,1.2c0,0.3,0,0.5-0.1,0.5
			c-0.3,0.3-0.9,1.3-1.7,3c-0.8,1.7-1.5,3.2-2,4.6c-0.2,0.8-0.4,1.5-0.6,2.1c-0.2,0.6-0.3,0.9-0.4,1.1l-0.1,0.4
			c-0.4,1.5-0.8,3.1-1.1,4.9c-0.1,0.2-0.2,0.4-0.2,0.6c0,0.2,0,0.3,0,0.4c-0.1,0-0.1,0.1-0.1,0.3c0,0.2,0,0.4-0.1,0.5
			c-0.2,0.2-0.2,0.6-0.1,1.2c-0.2,0.8-0.3,1.8-0.3,2.9c0,1.2,0,2,0.2,2.6c0.3,0.9,1.1,1.5,2.6,1.8c0.7,0.1,1.2,0.2,1.5,0.1
			c0.2,0,0.5-0.1,0.9-0.2c0.4-0.1,0.8-0.3,1.4-0.4l0,0c0.1,0,0.9-0.3,2.2-0.9c0.7-0.2,1.2-0.4,1.6-0.6c0.8-0.4,1.3-0.6,1.6-0.6
			c0.2,0,0.3,0,0.3,0c0.2,0.1,0.4,0.3,0.4,0.6l0,0.4c0,0.2-0.4,0.6-1.2,1.2c-0.7,0.6-1.5,1-2.2,1.4c-0.5,0.3-1.2,0.6-1.9,0.9
			c-0.7,0.3-1.5,0.4-2.2,0.6c-0.7,0.1-1.3,0.1-1.7,0.1C65.2,51.3,64.2,50.9,63.2,50.2z"/>
	</g>
	<g class="st0">
		<path class="st1" d="M80.9,48.8c-0.6-0.3-1.2-0.9-1.7-1.7c-0.6-1.2-1.1-2.6-1.4-4.3c-0.3-1.6-0.4-3-0.4-4.2c0-1.2,0.2-2.4,0.4-3.7
			l0.2-0.9c0.3-1.2,0.5-2,0.6-2.4c0.3-1.2,0.9-2.7,1.8-4.6c0.8-1.8,1.4-3.1,1.9-3.9c0.5-0.8,1-1.5,1.5-2c0.5-0.5,1.4-1.4,2.8-2.7
			c0.6-0.6,1.3-0.9,2.1-1.1c0.7-0.1,1.4,0,2,0.2c0.6,0.3,1.2,0.7,1.6,1.3c0.4,0.5,0.7,1.2,0.8,2c0.2,1.2,0.1,2.6-0.2,4
			c-0.3,1.4-0.9,2.6-1.6,3.5c-0.2,0.3-0.5,0.5-0.7,0.5c-0.3,0-0.7-0.1-1.3-0.5c-0.3-0.4-0.5-0.7-0.5-0.8c0-0.1,0-0.1,0.1-0.2
			c0.2-0.3,0.5-1,0.8-1.9c0.3-0.9,0.6-1.7,0.6-2.2c0-0.2,0-0.5,0-0.9c0.1-1,0.1-1.7,0-2s-0.2-0.6-0.4-0.7c-0.1-0.1-0.2-0.1-0.4-0.1
			c-0.2,0-0.6,0.2-1.1,0.6c-0.6,0.4-1.4,1.1-2.2,2.3c-0.9,1.1-1.6,2.3-2.3,3.6c-1,1.9-1.8,3.4-2.3,4.6c-0.5,1.2-0.9,2.4-1,3.5
			l-0.3,1.2c0,0.1,0,0.4,0,0.8c0,0.5-0.1,0.8-0.2,1.1c-0.1,1.7-0.1,3.3,0.2,4.9c0.2,1.2,0.5,2.2,0.8,3.1c0.4,0.9,0.7,1.5,1.2,1.7
			c0.3,0.2,0.6,0.2,1,0.1c0.6-0.1,1.2-0.3,2-0.7c0.8-0.4,1.7-1,2.8-1.7c0.6-0.3,1.2-0.7,1.7-1.2c0.5-0.4,0.9-0.8,1.1-1.1
			c0.6-0.6,1.2-1,1.6-1.1c0.3-0.2,0.5-0.2,0.6-0.3c0.1,0,0.1,0,0.1,0.1c0,0.1,0,0.2,0.1,0.3c0.1,0.4-0.1,0.8-0.4,1.4s-0.8,1-1.5,1.6
			c-0.5,0.6-1.1,1.2-1.8,1.6c-0.8,0.8-1.7,1.5-2.8,2.2C86,48.9,85,49.3,84,49.4c-0.2,0-0.5,0.1-0.8,0C82.3,49.3,81.5,49.1,80.9,48.8
			z"/>
	</g>
	<g class="st0">
		<path class="st1" d="M98.3,43.8c-0.4-0.4-0.6-0.9-0.8-1.5c-0.1-0.1-0.1-0.4-0.2-0.7c-0.1-0.8-0.2-1.8-0.3-2.9c0-1.2-0.1-2.1,0-2.8
			c0.1-0.1,0.1-0.3,0.1-0.5c0-0.2-0.1-0.4-0.1-0.4c0-0.1,0-0.4,0.1-0.9c0.2-1.1,0.3-2,0.3-2.7c0.4-2.4,0.8-4.3,1.3-5.8
			c0.5-1.5,1.1-2.9,1.8-4.2c1-1.4,1.8-2.4,2.4-3.1s1.3-1.3,2-1.8c1-0.8,1.7-1.2,2.2-1.3c0.1,0,0.2,0,0.4,0c1.6,0.1,2.9,0.5,3.8,1.3
			c0.9,0.8,1.7,2.1,2.4,4c0.5,1.6,0.8,2.9,1,3.8c0.2,1.4,0.2,2.8-0.1,4.3c-0.3,1.5-0.9,3.4-1.9,5.7c-1,3.2-2.4,5.8-4.2,7.9
			c-1.8,2.1-3.5,3.3-5.3,3.6c-1,0.2-1.9,0-2.8-0.5C99.4,44.6,98.7,44.1,98.3,43.8z M105.5,42.1c0.7-0.8,1.6-2,2.6-3.6
			c0.9-1.4,1.5-2.5,1.9-3.2c0.4-0.7,0.6-1.5,0.9-2.5c0.2-0.9,0.4-2.4,0.7-4.3c0.1-1.2,0.2-2.1,0.2-2.8c0-0.7-0.1-1.5-0.2-2.4
			l-0.5-2.7c-0.1-0.5-0.3-0.9-0.5-1.4c-0.2-0.5-0.5-0.8-0.8-1c-0.5-0.4-1.1-0.6-1.7-0.4c-0.4,0.1-0.8,0.2-1.2,0.5
			c-0.5,0.3-1.2,1.1-2,2.3c-0.9,1.2-1.6,2.5-2.2,3.7c-0.6,1.2-0.9,2-0.9,2.4c0,0,0,0.1,0,0.3c0,0.1,0,0.3-0.1,0.4
			c-0.4,0.6-0.8,1.7-1.1,3.3c-0.3,1.6-0.6,3.3-0.8,5.2c-0.2,1.8-0.2,3.4,0,4.6l0.1,1.4c0,0.2,0.1,0.4,0.2,0.6
			c0.1,0.1,0.2,0.3,0.3,0.4c0.2,0.2,0.3,0.3,0.5,0.5c0.2,0.2,0.4,0.3,0.7,0.4c0.3,0.1,0.7,0.1,1,0.1c0.2,0,0.3-0.1,0.4-0.1
			C103.9,43.3,104.7,42.8,105.5,42.1z"/>
		<path class="st1" d="M141.2,40.1c-0.1,0-0.3,0-0.5-0.1c-0.2-0.1-0.4-0.2-0.5-0.4c-0.3-0.4-0.5-1-0.6-1.7l-0.2-1.7
			c0.1-5.2,0.3-10.4,0.6-15.7c0.2-1.4,0.3-2.8,0.4-4c0.1-1.3,0.1-2.1,0.1-2.4c0-0.1-0.1,0-0.2,0.1c-0.1,0.2-0.2,0.4-0.3,0.6
			c-0.1,0.2-0.1,0.4-0.1,0.5l-0.8,1.7c-0.1,0.2-0.4,0.9-0.9,2.1c-0.3,1-0.5,1.7-0.8,2.3l-0.8,2.4c-0.6,1.7-1,2.8-1.1,3.1
			c-0.2,0.5-0.5,1.2-0.9,2.3c-0.2,0.7-0.5,1.6-1.1,2.6c-0.2,0.3-0.3,0.7-0.5,1.1s-0.2,0.6-0.3,0.8c0,0.1-0.2,0.7-0.6,1.5
			c-0.4,0.9-0.9,1.6-1.2,2.2c-0.5,0.8-1,1.3-1.3,1.7c-0.4,0.4-0.7,0.6-1.1,0.6c-0.5,0.1-1-0.1-1.7-0.5c-0.4-0.3-0.8-0.7-1-1.2
			c-0.2-0.5-0.4-1.1-0.5-1.9c-0.1-0.7-0.2-1.9-0.3-3.5c0-0.1,0-1.7,0.1-4.6c0.1-2.9,0.1-4.5,0.2-4.8c0-0.2,0-0.4-0.1-0.6
			c0-0.2-0.1-0.4-0.2-0.4c-0.1,0-0.2,0.2-0.4,0.6c-0.1,0.1-0.4,1-1.1,2.6c-0.7,1.6-1.3,3.6-2,6c-1.1,3.2-2,5.6-2.5,7.2
			c-0.5,1.6-0.9,2.8-1.2,3.4c-0.3,1-0.5,1.5-0.6,1.6c-0.4,0.1-1-0.2-1.7-0.8c-0.1-0.2-0.2-0.3-0.2-0.4c0-0.2,0-0.5,0.1-1
			c0.1-0.5,0.3-1.1,0.5-1.9c0.6-1.8,1-2.9,1.2-3.1c0.3-0.5,0.4-1,0.4-1.5c0.3-0.6,0.7-1.5,1.1-2.9c0.3-0.7,0.7-1.6,1.1-2.7
			c0.4-1.1,0.8-2.1,1.1-3.1l0.8-2.2c0.8-2.1,1.4-3.6,1.9-4.8c0.5-1.1,0.9-1.9,1.2-2.3c0.4-0.6,0.5-1,0.5-1.4
			c-0.1-0.6-0.1-1.1,0.1-1.7c0.2-0.5,0.4-0.8,0.6-0.8c0.3-0.1,0.6-0.1,0.8,0c0.2,0,0.5,0.2,0.7,0.4c0.1,0.1,0.2,0.2,0.3,0.4
			c0.2,0.2,0.3,0.3,0.4,0.5c0.1,0.2,0.2,0.4,0.2,0.8c0.1,0.3,0.1,0.8,0.1,1.3c0,0.4,0,1.2,0.1,2.5c0,0.6,0,1,0,1.1
			c-0.4,2.3-0.6,5.1-0.6,8.5c0,3.4,0,5.7,0.2,7c0,0.3,0.1,0.5,0.2,0.6c0.2,0.1,0.4,0.1,0.5,0c0.1-0.1,0.3-0.5,0.5-1.2
			c0.3-0.7,0.7-1.7,1.4-2.9c0-0.1,0.4-1.1,1.2-3c1.9-4.6,3.7-9.2,5.4-13.7l0.8-1.9c0.3-0.7,0.6-1.4,0.9-2c0.3-0.6,0.5-1,0.7-1.2
			c0.2-0.3,0.5-0.4,0.7-0.5c0.5-0.1,1,0.2,1.6,0.7c0.5,0.6,0.8,1.3,1,2.3c0.1,0.7,0.1,1.9,0.1,3.5c-0.1,1.6-0.2,3.2-0.5,4.8
			c0,0.8-0.1,1.8-0.2,3c-0.1,1.2-0.3,2.3-0.5,3.3c0,0.5,0,1.1-0.1,1.8c0,0.1,0,0.6,0,1.3c0,0.7,0,1.2,0.1,1.4
			c-0.3,0.8-0.3,2.3,0.1,4.6l0,1c0.1,0.8,0.1,1.3,0.1,1.6c0,0.3-0.1,0.4-0.2,0.4c-0.1,0-0.1,0-0.3,0c-0.2,0-0.3,0.1-0.3,0.3
			C141.4,40,141.3,40.1,141.2,40.1z"/>
		<path class="st1" d="M152.4,37.1c0,0-0.3-0.1-0.9-0.3c-0.6-0.2-1.2-0.5-2-0.9l-0.9-0.4c-0.6-0.4-1-0.9-1.4-1.4
			c-0.3-0.5-0.7-1.2-1-2c-0.1-0.3-0.2-0.6-0.2-0.9c-0.1-0.8-0.1-1.8,0-2.9c0.1-1.1,0.3-2.1,0.5-2.8c0.4-1.6,1.3-4.1,2.9-7.7
			c0.1-0.1,0.2-0.2,0.2-0.3c0,0,0-0.1,0-0.1c0-0.2,0.2-1.1,0.8-2.8c0.4-0.6,0.6-1,0.5-1.4c0-0.2-0.1-0.3-0.2-0.4
			c-0.1-0.1,0.1-0.5,0.6-1.1c0.5-0.6,1.2-1.3,2.1-2c0.7-0.7,1.3-1.1,2.1-1.2c0.2,0,0.4,0,0.6,0c0.2,0,0.3,0.1,0.3,0.3
			c0,0.2,0.6,0,1.6-0.4c0.5-0.2,0.8-0.3,1-0.4c0.1-0.2,0.4-0.3,0.8-0.5c0.4-0.2,1.1-0.4,1.9-0.6c0.4,0,0.9-0.1,1.4-0.2
			c0.5-0.1,0.8-0.2,0.9-0.2c0.2-0.1,0.5-0.1,0.7,0c0.3,0.1,0.6,0.4,0.8,0.8c0.1,0.2,0.2,0.4,0.2,0.5c0,0.3-0.1,0.6-0.4,0.8
			c-0.3,0.2-1,0.5-1.9,0.7c-0.9,0.3-1.5,0.4-1.7,0.5c-1.5,0.4-3.1,0.9-4.7,1.6c-1,0.4-1.8,0.8-2.2,1.2c-0.4,0.4-0.9,1.1-1.3,2.2
			c-0.2,0.2-0.4,0.6-0.6,1.2c-0.2,0.6-0.4,1.3-0.6,1.9c-0.1,0.1-0.1,0.3-0.2,0.5c-0.1,0.2-0.2,0.4-0.3,0.6c-0.6,1.2-1.1,2.1-1.3,2.6
			c-0.2,0.5-0.3,0.8-0.2,0.9c0.1,0,0.3,0,0.5,0c0.2,0,0.5,0,0.6,0c0.2-0.2,0.6-0.3,1-0.5c0.4-0.1,0.7-0.2,0.9-0.3
			c4.2-1.8,6.6-2.8,7.2-3c0.2-0.2,0.4-0.3,0.7-0.4c0.5-0.1,1,0.2,1.5,0.8c0.1,0.2,0.2,0.3,0.2,0.4c0,0.2-0.1,0.5-0.5,0.8
			c-0.4,0.3-1,0.7-2.1,1.2c-1,0.5-2.3,1.1-3.7,1.7l-1.3,0.6c-1.7,0.8-3.1,1.3-4.1,1.5c-0.9,0.1-1.3,0-1.4-0.5
			c-0.3-0.1-0.6,0.3-0.8,1.1c-0.2,0.8-0.4,1.8-0.5,2.9c-0.1,1.1-0.1,2.1,0.1,2.8c0.1,0.4,0.2,0.7,0.3,0.9c0.4,0.7,0.8,1.1,1.2,1.4
			c0.4,0.3,1.1,0.5,2,0.6c0.2,0,0.4,0,0.7,0c0.3,0,0.6-0.1,1-0.1c0.6-0.1,1.1-0.3,1.6-0.6c1.4-0.5,2.5-0.9,3.5-1.4
			c1-0.5,1.5-0.8,1.7-1c0.2-0.1,0.3-0.2,0.4-0.2c0.1,0,0.2-0.1,0.3-0.1l0,0.1c0,0,0,0,0,0c0.1,0,0.3-0.3,0.6-0.8
			c0.4-0.5,1-0.9,1.8-1.4c0.8-0.5,1.2-0.6,1.2-0.4c0.1,0.2,0.1,0.3,0.1,0.4c0.1,0.5-0.1,1.2-0.7,2c-0.5,0.8-1.3,1.7-2.3,2.5
			c-1.2,0.9-2.7,1.7-4.3,2.3c-1.6,0.6-3.2,1.1-4.7,1.3C152.7,37.1,152.4,37.1,152.4,37.1z"/>
	</g>
</g>
<g id="Group_137">
	<path id="Path_74" class="st2" d="M35.9,80c-24.5,32-33.7,75.3-24.3,114.6s37.1,73.6,73.3,90.9"/>
	<path id="Path_75" class="st2" d="M63.2,285.2l24.6,3.1l-7.2-18"/>
</g>
</svg>
