<svg id="Layer_1" data-name="Layer 1" xmlns="http://www.w3.org/2000/svg" viewBox="0 0 333.23 233.2"><defs><style>.cls-1{isolation:isolate;}.cls-2{fill:#1588bf;}.cls-3{fill:none;stroke:#1588bf;stroke-miterlimit:10;stroke-width:2.16px;}</style></defs><title>welcome</title><g id="Headline_will_go_her" data-name="Headline will go her" class="cls-1"><g class="cls-1"><path class="cls-2" d="M39.32,117.54a3.09,3.09,0,0,1-1.53-1.27,8.17,8.17,0,0,1-1.41-1.42,6.69,6.69,0,0,1-1.13-1.92c-.69-2.82-1.13-4.88-1.34-6.18q-.39-2.5-.81-6.82a55.36,55.36,0,0,1-.19-7.87c.12-2.49.35-5.55.69-9.2.18-1.18.29-2.19.34-3s0-1.23-.19-1.21-.7,1-1.24,2.53-1.07,3.26-1.58,5q-.37,1.07-.69,2.25c-.21.8-.44,1.55-.7,2.26A190.64,190.64,0,0,1,23,108.93c-.43.74-1,1.89-1.74,3.47a32,32,0,0,1-3.62,6.51,6.6,6.6,0,0,1-4.12,2.84,3.65,3.65,0,0,1-2.84-.64,4.47,4.47,0,0,1-1.6-2.58,7.89,7.89,0,0,1,0-1.28A51.22,51.22,0,0,1,8.13,108q-.35-7-.27-11.78-.06-4.38.53-14.52l.44-9.94c.21-.94.49-2.82.84-5.61L10,63.12a4,4,0,0,1,.34-2.47,1.91,1.91,0,0,1,1.39-1,2.66,2.66,0,0,1,2.32.82,5.67,5.67,0,0,1,2,3.6,9.27,9.27,0,0,1-.23,3.78q-2.44,10.44-2.32,26.86-.06,5.4.14,11.54t.56,6.17c.5,0,1.09-.44,1.79-1.43a12.51,12.51,0,0,0,1.68-3.78q4.47-11,10.08-28.09.14-.3,2.76-7.93l1.5-4.35c.13-.38.29-.82.48-1.31L33.17,64c.92-2.64,1.66-4.62,2.21-5.92a5.74,5.74,0,0,1,1.42-2.33,4.92,4.92,0,0,1,2.61.36,5.34,5.34,0,0,1,2.06,2,4.34,4.34,0,0,1,.09,1.49,12.5,12.5,0,0,1-.27,2c-.06.37-.21,1.31-.42,2.8s-.37,3-.44,4.46a53,53,0,0,0-1.13,9q-.11,3.3-.35,6.45c-.28,4.73-.44,8.63-.48,11.67a57.71,57.71,0,0,0,.43,8.16q.63,4.56,1.51,6.06a1.24,1.24,0,0,0,1.47.68,1.69,1.69,0,0,0,1.24-.83q2.06-3.8,3.33-6.65t2.68-6.73q3.82-11,8.51-29.94,1.55-8.64,2.18-11.3a6.21,6.21,0,0,1,1.85-3.59,1.92,1.92,0,0,1,1-.52,2.61,2.61,0,0,1,1.89.43,3.34,3.34,0,0,1,.85,1.05,3.9,3.9,0,0,1,.51,1.75q-.41,3.25-2.3,12.28T60.56,80.05c-.17.46-.52,1.33-1.05,2.63-.09.2-.27.67-.55,1.42a3.56,3.56,0,0,0-.33,1.65q.13.89-3.21,10a101.75,101.75,0,0,1-5.12,12.37,28.94,28.94,0,0,1-5,6.77q-2.65,2.57-3.81,2.75A3.48,3.48,0,0,1,39.32,117.54Z" transform="translate(-7.85 -5.98)"/><path class="cls-2" d="M79.47,108.94l-1.83-.63a25.12,25.12,0,0,1-4.24-2l-2-1a12.47,12.47,0,0,1-3-3,18.73,18.73,0,0,1-2.1-4.28,11.41,11.41,0,0,1-.47-1.85,25.91,25.91,0,0,1-.08-6.24,32.13,32.13,0,0,1,1-6.06q1.22-5,6.25-16.52l.41-.57c.07-.1.08-.18,0-.23q-.11-.61,1.71-5.93a4.54,4.54,0,0,0,1.08-3,1.62,1.62,0,0,0-.43-.94c-.28-.26.15-1.07,1.31-2.44a30,30,0,0,1,4.49-4.23,7.74,7.74,0,0,1,4.42-2.62,2.82,2.82,0,0,1,1.24,0,1,1,0,0,1,.69.58c0,.35,1.22.05,3.51-.92,1-.41,1.78-.68,2.24-.82a3.47,3.47,0,0,1,1.71-1c1-.37,2.29-.81,4-1.33a22.42,22.42,0,0,0,2.94-.47,18.93,18.93,0,0,0,1.93-.48A1.79,1.79,0,0,1,106,43a4,4,0,0,1,1.78,1.68,3.13,3.13,0,0,1,.45,1.12,1.78,1.78,0,0,1-1,1.75,14.24,14.24,0,0,1-4,1.59l-3.59,1a102.65,102.65,0,0,0-10.06,3.33,14.48,14.48,0,0,0-4.76,2.58A15.17,15.17,0,0,0,82,60.76a7.47,7.47,0,0,0-1.24,2.53c-.46,1.32-.92,2.69-1.36,4.1-.14.27-.31.59-.48,1a14.76,14.76,0,0,1-.71,1.3q-2,3.88-2.77,5.6c-.49,1.14-.63,1.82-.41,2,.19,0,.54.06,1.07.1s1,.06,1.33.06a6.44,6.44,0,0,1,2.13-1,15.89,15.89,0,0,0,2-.68Q95.12,69.91,97,69.35a2.86,2.86,0,0,1,1.43-.77c1.07-.17,2.14.39,3.19,1.69a2.24,2.24,0,0,1,.43.94c.08.53-.25,1.1-1,1.71a25.69,25.69,0,0,1-4.45,2.48q-3.32,1.57-8,3.69l-2.73,1.26a35,35,0,0,1-8.73,3.11c-1.84.3-2.81-.07-2.91-1.09-.64-.2-1.21.56-1.7,2.28a30.34,30.34,0,0,0-1,6.23,27.68,27.68,0,0,0,.13,6.05,6.09,6.09,0,0,0,.58,1.92,8.86,8.86,0,0,0,2.54,3.07,9.86,9.86,0,0,0,4.37,1.32c.42,0,.95,0,1.59-.07a21.31,21.31,0,0,0,2.19-.26,9.51,9.51,0,0,0,3.45-1.27,70.4,70.4,0,0,0,7.52-3,22.73,22.73,0,0,0,3.74-2.06,4.72,4.72,0,0,1,.83-.49,3,3,0,0,1,.7-.21l-.06.2c0,.06,0,.08.11.07s.63-.62,1.36-1.77a18.26,18.26,0,0,1,3.76-3.06q2.44-1.58,2.64-1a2.74,2.74,0,0,1,.31.86q.27,1.69-1.45,4.38a22.43,22.43,0,0,1-5,5.31,36.67,36.67,0,0,1-9.21,5,56.81,56.81,0,0,1-10.19,2.84Z" transform="translate(-7.85 -5.98)"/><path class="cls-2" d="M120.65,100.18a12.07,12.07,0,0,1-4.53-5,46.49,46.49,0,0,1-1.31-5.92,5.54,5.54,0,0,1-.11-2.45c.16-.14.19-.51.1-1.11a10.26,10.26,0,0,1,.16-3,4.88,4.88,0,0,0-.08-2.82l.21-.67a4.94,4.94,0,0,1,.44-1,1.56,1.56,0,0,0,.34-1,1.37,1.37,0,0,0-.15-.66v-.09a2.67,2.67,0,0,1,.07-1,4.1,4.1,0,0,1,.34-1,2.77,2.77,0,0,0,.38-.79l.21-.67a33.06,33.06,0,0,1,.75-4.19,35.52,35.52,0,0,1,1.1-4.33l0-.18a10.75,10.75,0,0,1,.69-2,13.3,13.3,0,0,1,.69-3.68A92.82,92.82,0,0,1,124,47.21a46.28,46.28,0,0,1,4.58-8.9,9.23,9.23,0,0,1,1.25-1.61,2,2,0,0,1,1-.58,3.45,3.45,0,0,1,2.24.92,3.92,3.92,0,0,1,1.53,2.69c.1.65,0,1-.2,1-.69.66-1.93,2.83-3.72,6.53a98.66,98.66,0,0,0-4.2,9.8c-.51,1.79-1,3.29-1.35,4.51s-.64,2-.76,2.4l-.23.86q-1.41,4.88-2.45,10.43a2.68,2.68,0,0,0-.41,1.21,5.17,5.17,0,0,0,0,.78c-.13,0-.21.14-.23.54a7.45,7.45,0,0,1-.15,1.07c-.36.42-.44,1.32-.22,2.69a29.72,29.72,0,0,0-.64,6.31,22.61,22.61,0,0,0,.41,5.51c.55,1.92,2.43,3.24,5.65,3.94a9.71,9.71,0,0,0,3.16.33,7.73,7.73,0,0,0,1.9-.4c.84-.25,1.81-.56,2.92-.92l-.09,0,4.73-1.85a16.4,16.4,0,0,0,3.44-1.36,16.79,16.79,0,0,1,3.34-1.36,1.1,1.1,0,0,1,.75.07,1.64,1.64,0,0,1,.92,1.22l-.05.83c-.1.51-.94,1.37-2.51,2.59A25.49,25.49,0,0,1,140,99.44a20,20,0,0,1-4.12,1.94,28,28,0,0,1-4.7,1.2,10.61,10.61,0,0,1-3.63.11A14.75,14.75,0,0,1,120.65,100.18Z" transform="translate(-7.85 -5.98)"/><path class="cls-2" d="M158.85,97.1a9.25,9.25,0,0,1-3.54-3.64,28.63,28.63,0,0,1-2.93-9.23,55.45,55.45,0,0,1-.79-9,37.29,37.29,0,0,1,.95-7.87l.5-2a50.87,50.87,0,0,1,1.29-5.13,57.47,57.47,0,0,1,3.92-9.85A92.91,92.91,0,0,1,162.4,42a25.88,25.88,0,0,1,3.19-4.39q1.6-1.71,6-5.87A7.84,7.84,0,0,1,176,29.42a8.27,8.27,0,0,1,4.32.46,7.21,7.21,0,0,1,3.4,2.71,9.16,9.16,0,0,1,1.7,4.39,22.38,22.38,0,0,1-.46,8.65,18.77,18.77,0,0,1-3.46,7.59A2.67,2.67,0,0,1,180,54.29a4.61,4.61,0,0,1-2.81-1c-.7-.92-1.09-1.47-1.18-1.64s0-.31.3-.41a29.58,29.58,0,0,0,1.77-4.16,29.31,29.31,0,0,0,1.39-4.75,11.93,11.93,0,0,0,.08-1.84,24.8,24.8,0,0,0,.05-4.3,2.35,2.35,0,0,0-.9-1.59,1,1,0,0,0-.75-.16,7.22,7.22,0,0,0-2.36,1.29,20.47,20.47,0,0,0-4.8,4.87,49.75,49.75,0,0,0-4.89,7.72q-3.25,6-4.89,9.82a32,32,0,0,0-2.23,7.57l-.61,2.47a5.35,5.35,0,0,1,0,1.82,12.06,12.06,0,0,1-.44,2.45,43.65,43.65,0,0,0,.38,10.44,30.59,30.59,0,0,0,1.74,6.67,7.48,7.48,0,0,0,2.55,3.71,3.22,3.22,0,0,0,2.24.28,14.63,14.63,0,0,0,4.27-1.59q2.47-1.31,6.05-3.61a28.76,28.76,0,0,0,3.58-2.48,14.11,14.11,0,0,0,2.4-2.39,7.17,7.17,0,0,1,3.48-2.29,5,5,0,0,1,1.28-.57c.12,0,.2.05.26.19a2.86,2.86,0,0,1,.13.57,4.26,4.26,0,0,1-.9,2.93,16,16,0,0,1-3.12,3.37,12.37,12.37,0,0,1-3.84,3.44,34.93,34.93,0,0,1-6.06,4.71,18.21,18.21,0,0,1-6.65,2.7,11.65,11.65,0,0,1-1.82.1A18.64,18.64,0,0,1,158.85,97.1Z" transform="translate(-7.85 -5.98)"/><path class="cls-2" d="M196.19,86.29a6.8,6.8,0,0,1-1.7-3.24,9.29,9.29,0,0,1-.34-1.59,54.1,54.1,0,0,1-.55-6.31c-.1-2.54-.11-4.58,0-6.11a1.61,1.61,0,0,0,.23-1.14,2.32,2.32,0,0,0-.19-.88,12.73,12.73,0,0,1,.17-1.85,52.15,52.15,0,0,0,.64-5.77A78.28,78.28,0,0,1,197.27,47a65.47,65.47,0,0,1,3.87-9c2.14-3,3.84-5.25,5.11-6.7a22.42,22.42,0,0,1,4.37-3.84q3.15-2.59,4.66-2.84a2.86,2.86,0,0,1,.83.05,13.08,13.08,0,0,1,8.13,2.87q3,2.59,5.12,8.64a64.79,64.79,0,0,1,2.1,8.08,27.22,27.22,0,0,1-.18,9.25,64.86,64.86,0,0,1-4,12.32,50.25,50.25,0,0,1-9,16.95q-5.66,6.74-11.44,7.66a9.58,9.58,0,0,1-6-1A21.57,21.57,0,0,1,196.19,86.29Zm15.37-3.62a45.76,45.76,0,0,0,5.67-7.7q2.85-4.56,4-6.84a24.34,24.34,0,0,0,1.85-5.32c.47-2,1-5.09,1.47-9.19a60.37,60.37,0,0,0,.37-6,34.86,34.86,0,0,0-.49-5.08l-1-5.78a13.07,13.07,0,0,0-1.13-3.07,7,7,0,0,0-1.63-2.25,4.46,4.46,0,0,0-3.72-1,5.69,5.69,0,0,0-2.48,1c-1.06.66-2.5,2.3-4.34,4.93a69.86,69.86,0,0,0-4.81,8c-1.37,2.69-2,4.38-1.89,5.1a4.46,4.46,0,0,1,0,.55,1.93,1.93,0,0,1-.23.85q-1.26,1.84-2.36,7a92.26,92.26,0,0,0-1.61,11.12,51.41,51.41,0,0,0-.1,9.79l.3,3.06a5.15,5.15,0,0,0,.33,1.23,3.54,3.54,0,0,0,.75.93,12.67,12.67,0,0,1,1,1.08,3.29,3.29,0,0,0,1.61.93,5.06,5.06,0,0,0,2.12.12,4.2,4.2,0,0,0,1-.25A11.94,11.94,0,0,0,211.56,82.67Z" transform="translate(-7.85 -5.98)"/><path class="cls-2" d="M288.23,78.52a2.26,2.26,0,0,1-1.13-.18,2.76,2.76,0,0,1-1.14-.83,8.88,8.88,0,0,1-1.3-3.63l-.49-3.67q.19-16.65,1.34-33.64.56-4.57.78-8.62c.15-2.7.23-4.42.24-5.15,0-.18-.19-.08-.46.3a7,7,0,0,0-.75,1.3c-.23.5-.3.83-.21,1L283.4,29a29.67,29.67,0,0,0-1.84,4.5,36.91,36.91,0,0,1-1.7,4.84l-1.75,5.11c-1.3,3.68-2.11,5.91-2.41,6.69q-.68,1.49-1.85,5a23.25,23.25,0,0,1-2.41,5.59c-.37.73-.71,1.52-1,2.36s-.52,1.39-.6,1.65a12.39,12.39,0,0,1-1.35,3.32,47.57,47.57,0,0,1-2.67,4.8,24,24,0,0,1-2.9,3.61,4.42,4.42,0,0,1-2.34,1.33A5.13,5.13,0,0,1,257,76.71,7.24,7.24,0,0,1,254.86,74a15,15,0,0,1-1.15-4.11,72,72,0,0,1-.57-7.58c0-.31.08-3.58.19-9.8s.31-9.77.45-10.4a7.49,7.49,0,0,0-.11-1.26c-.08-.54-.21-.79-.39-.76s-.45.47-.8,1.31q-.21.41-2.37,5.49a108.18,108.18,0,0,0-4.32,12.84q-3.66,10.35-5.4,15.51c-1.16,3.45-2,5.91-2.57,7.4a25.73,25.73,0,0,1-1.28,3.49c-.89.14-2.13-.42-3.73-1.69a2.24,2.24,0,0,1-.43-.94,6.56,6.56,0,0,1,.26-2.14c.23-1,.59-2.35,1.05-4q1.91-5.88,2.68-6.73a6.22,6.22,0,0,0,.76-3.32A51.74,51.74,0,0,0,239.51,61q1-2.36,2.31-5.85t2.28-6.66l1.81-4.77c1.67-4.4,3-7.82,4.08-10.24a29.37,29.37,0,0,1,2.48-4.86,5,5,0,0,0,1-2.9,7.81,7.81,0,0,1,.21-3.55c.34-1.12.79-1.67,1.34-1.63a5.75,5.75,0,0,1,1.78-.05,3.18,3.18,0,0,1,1.55.89l.72.76a4.72,4.72,0,0,1,.82,1.15,5.2,5.2,0,0,1,.48,1.61,17.12,17.12,0,0,1,.16,2.71c.06.79.1,2.58.12,5.38a20.54,20.54,0,0,0,0,2.46,127.84,127.84,0,0,0-1.35,18.25,102.64,102.64,0,0,0,.52,15.13,3.33,3.33,0,0,0,.39,1.31.9.9,0,0,0,1.13-.09,8,8,0,0,0,1.1-2.55,38.73,38.73,0,0,1,3.05-6.14q.14-.3,2.54-6.44,6.06-14.75,11.68-29.53l1.73-4q1-2.34,2-4.37A10.94,10.94,0,0,1,285,14.36a2.72,2.72,0,0,1,1.58-1c1.12-.18,2.24.34,3.35,1.57a9.34,9.34,0,0,1,2.16,4.95,43.17,43.17,0,0,1,.18,7.51,90.56,90.56,0,0,1-1,10.35q-.13,2.58-.53,6.47t-1,7.1a38.39,38.39,0,0,1-.11,4q0,.45-.06,2.79a9.69,9.69,0,0,0,.26,3.11q-.94,2.63.19,9.84l.06,2.09c.14,1.68.2,2.83.18,3.44s-.16.91-.41.89a1.38,1.38,0,0,0-.55,0c-.41.07-.59.28-.54.64S288.64,78.46,288.23,78.52Z" transform="translate(-7.85 -5.98)"/><path class="cls-2" d="M312.32,72.06l-1.83-.63a25.12,25.12,0,0,1-4.24-2l-2-1a12.47,12.47,0,0,1-3-2.95,18.73,18.73,0,0,1-2.1-4.28,11.41,11.41,0,0,1-.47-1.85,25.91,25.91,0,0,1-.08-6.24,31.34,31.34,0,0,1,1.05-6.06q1.21-5,6.25-16.52l.41-.57c.07-.1.08-.18,0-.23q-.11-.62,1.71-5.93a4.54,4.54,0,0,0,1.08-3,1.62,1.62,0,0,0-.43-.94c-.28-.26.15-1.07,1.31-2.44a30,30,0,0,1,4.49-4.23,7.74,7.74,0,0,1,4.42-2.62,2.82,2.82,0,0,1,1.24,0,1,1,0,0,1,.69.58c.05.35,1.22,0,3.51-.92,1-.41,1.78-.68,2.24-.82a3.47,3.47,0,0,1,1.71-1c.95-.37,2.29-.81,4-1.33a24.16,24.16,0,0,0,2.94-.46c1-.22,1.64-.39,1.93-.49a1.79,1.79,0,0,1,1.59,0,4,4,0,0,1,1.78,1.68A3.21,3.21,0,0,1,341.06,9a1.78,1.78,0,0,1-1,1.75,14.24,14.24,0,0,1-4,1.59l-3.59,1a102.65,102.65,0,0,0-10.06,3.33,14.48,14.48,0,0,0-4.76,2.58,15.17,15.17,0,0,0-2.87,4.65,7.47,7.47,0,0,0-1.24,2.53c-.46,1.32-.92,2.69-1.36,4.1-.14.27-.31.59-.49,1a12.3,12.3,0,0,1-.7,1.3q-2,3.89-2.77,5.6c-.49,1.14-.63,1.82-.41,2,.19,0,.54.06,1.07.1s1,.06,1.33.06a6.44,6.44,0,0,1,2.13-1,15.89,15.89,0,0,0,2-.68Q328,33,329.8,32.48a2.8,2.8,0,0,1,1.43-.78c1.07-.17,2.14.39,3.19,1.69a2.24,2.24,0,0,1,.43.94c.08.53-.26,1.1-1,1.71a25.69,25.69,0,0,1-4.45,2.48q-3.31,1.57-8,3.69l-2.73,1.26a34.59,34.59,0,0,1-8.73,3.11c-1.84.3-2.81-.07-2.91-1.09-.64-.2-1.21.56-1.7,2.28a30.34,30.34,0,0,0-1,6.23,27.68,27.68,0,0,0,.13,6,5.84,5.84,0,0,0,.58,1.92A8.86,8.86,0,0,0,307.6,65,9.86,9.86,0,0,0,312,66.36c.42,0,.95,0,1.58-.07a21.16,21.16,0,0,0,2.2-.26,9.51,9.51,0,0,0,3.45-1.27,70.4,70.4,0,0,0,7.52-3,22.73,22.73,0,0,0,3.74-2.06,5,5,0,0,1,.83-.49A3,3,0,0,1,332,59l-.06.2c0,.06,0,.08.11.07s.63-.62,1.36-1.77a18.26,18.26,0,0,1,3.76-3.06c1.63-1.05,2.51-1.37,2.63-1a2.56,2.56,0,0,1,.32.86q.27,1.7-1.45,4.39a22.8,22.8,0,0,1-5,5.3,36.67,36.67,0,0,1-9.21,5,57.71,57.71,0,0,1-10.19,2.85Z" transform="translate(-7.85 -5.98)"/></g></g><g id="Group_137" data-name="Group 137"><path id="Path_74" data-name="Path 74" class="cls-3" d="M38.76,161.33a77.14,77.14,0,0,0,97.84,68.94" transform="translate(-7.85 -5.98)"/><path id="Path_75" data-name="Path 75" class="cls-3" d="M127.27,238.29l11.59-7.9-9.81-5" transform="translate(-7.85 -5.98)"/></g></svg>