<svg xmlns="http://www.w3.org/2000/svg" width="52.701" height="23.83" viewBox="0 0 52.701 23.83">
  <g id="Group_132" data-name="Group 132" opacity="0.999">
    <g id="Group_111" data-name="Group 111" transform="translate(32.19 8.563)">
      <path id="Path_87" data-name="Path 87" d="M238.917,1063.351a.01.01,0,0,0,.007,0,.008.008,0,0,0,.007,0l-.014,0Zm18.572,12.016h0s0,0-.006,0l.008,0" transform="translate(-238.917 -1063.351)" fill="#626162"/>
      <path id="Path_88" data-name="Path 88" d="M238.917,1063.351l.007,0a.009.009,0,0,0,.007,0l-.015,0Zm18.573,12.016h0s0,0-.006,0Z" transform="translate(-238.917 -1063.351)" fill="#626162" stroke="#bdbcbc" stroke-linecap="round" stroke-linejoin="round" stroke-width="0.656"/>
    </g>
    <path id="Path_89" data-name="Path 89" d="M263.109,1068.371a7.359,7.359,0,0,0-.358,3.333,2.624,2.624,0,0,0,.2.859.724.724,0,0,0,.613.414,20.389,20.389,0,0,0,3.347-1.01l1.375-.44a.83.83,0,0,0,.594-.8.886.886,0,0,0-.54-.905l-.968-.393c-3.311-1.366-3.46-1.419-3.627-1.421a.717.717,0,0,0-.641.366" transform="translate(-225.651 -1058.489)" fill="#626162"/>
    <path id="Path_90" data-name="Path 90" d="M282.526,1096.877a21.906,21.906,0,0,0,.07-3.5s.007-1.43.008-1.444a.831.831,0,0,0-.576-.813.891.891,0,0,0-1.026.231s-.676.8-.678.8a23.641,23.641,0,0,0-2.473,3.012.664.664,0,0,0-.037.3.794.794,0,0,0,.188.42,7.232,7.232,0,0,0,3.941,1.447.721.721,0,0,0,.583-.454" transform="translate(-237.662 -1076.82)" fill="#626162"/>
    <path id="Path_91" data-name="Path 91" d="M312.791,1092.061a7.15,7.15,0,0,0,2.593-3.3.724.724,0,0,0-.248-.7,22.341,22.341,0,0,0-3.309-1.148s-1.351-.446-1.368-.454a.838.838,0,0,0-.951.3.885.885,0,0,0-.092,1.054l.543.885a25.951,25.951,0,0,0,2.1,3.281.712.712,0,0,0,.732.078" transform="translate(-262.694 -1073.13)" fill="#626162"/>
    <path id="Path_92" data-name="Path 92" d="M310.321,1056.337a24.845,24.845,0,0,0,3.773-.983.717.717,0,0,0,.3-.672.165.165,0,0,0,0-.03,7.252,7.252,0,0,0-2.337-3.457.726.726,0,0,0-.744.029,21.855,21.855,0,0,0-2.108,2.784s-.846,1.153-.856,1.164a.826.826,0,0,0-.008.994.882.882,0,0,0,.957.417s-.014.025-.017.03c.172-.065.48-.141,1.041-.274" transform="translate(-261.816 -1045.048)" fill="#626162"/>
    <path id="Path_93" data-name="Path 93" d="M276.024,1021.534a9.8,9.8,0,0,0-4.941,1.388.747.747,0,0,0-.217.7c.1.2,4.33,6.861,4.33,6.861.625,1.014,1.135.856,1.3.8s.673-.208.616-1.391" transform="translate(-232.122 -1021.502)" fill="#626162"/>
    <path id="Path_94" data-name="Path 94" d="M297.245,1030.027c-.06-1.387-.478-7.562-.527-7.849a.735.735,0,0,0-.564-.517" transform="translate(-252.251 -1021.628)" fill="#626162"/>
    <path id="Path_95" data-name="Path 95" d="M83.264,1071.956a2.664,2.664,0,0,0,2.291.318c.951-.188,1.541-.613,2.108-2.418l2.827-8.881a1.514,1.514,0,0,0-.032-1.184,1.043,1.043,0,0,0-.683-.5c-.5-.138-1.132-.124-1.529,1.23l-1.483,5.038s-3.021-5.708-3.023-5.708a1.047,1.047,0,0,0-1.319-.429,1.282,1.282,0,0,0-.693,1.81s3.675,7.478,3.683,7.5a2.619,2.619,0,0,1,.1.31s.033.2.033.21a.963.963,0,0,1-.276.692.913.913,0,0,1-.68.231l-.616-.013a1.05,1.05,0,0,0-1.019.933.962.962,0,0,0,.312.858m14.48-8.421H93.809c-.107-.078-.158-.208-.079-.6a2.045,2.045,0,0,1,.261-.651c.051-.078.1-.158.154-.237a1.98,1.98,0,0,1,1.121-.7,1.851,1.851,0,0,1,2.5,1.564c.075.523.026.625-.028.625Zm2.418-.685a3.982,3.982,0,0,0-1.434-2.9,4.446,4.446,0,0,0-3.538-.607c-1.816.315-2.907,1.613-3.157,3.759-.308,2.566.115,4.5,1.225,5.592a4.117,4.117,0,0,0,3.581.952c2.147-.3,3.113-1.481,3.113-2.226a.989.989,0,0,0-.818-1.045c-.279-.056-.514,0-1.034.466a2.68,2.68,0,0,1-2.39.721,1.783,1.783,0,0,1-1.253-1.108s-.092-.366-.087-.326c-.063-.331-.091-.658.112-.792l.054-.037h4.717c.435,0,.656-.056.782-.193.259-.288.239-1.11.128-2.257m4.276-6.787a1.3,1.3,0,0,0-1.164.109,1.117,1.117,0,0,0-.5,1.109v11.246s.062.4.069.42a1.03,1.03,0,0,0,.575.65,1.2,1.2,0,0,0,1.018-.009,1.136,1.136,0,0,0,.652-1.1v-11.267s-.071-.544-.071-.555a.934.934,0,0,0-.574-.607m8.9,11.423c-1.557,0-1.805-1.383-1.854-2.426,0,0-.02-.611-.02-.611s.018-.452.018-.469c.1-1.806.474-2.518,1.427-2.716a1.668,1.668,0,0,1,1.5.219c.551.443.793,1.383.771,2.949-.016,1.834-.335,3.054-1.836,3.054Zm.116-8.257a3.468,3.468,0,0,0-2.794.547s-.1.078-.133.1l-.077.039-.235.105-.067-.264-.056-.1-.02-.059-.006-.017-.066-.089a1.152,1.152,0,0,0-1.519-.215c-.3.168-.465.4-.465,1.109v11.037a1.15,1.15,0,0,0,.6,1.179,1.277,1.277,0,0,0,1.081.045,1,1,0,0,0,.577-.618l.07-.473v-1.91l-.021-.307.008-.091.012-.043.114-.364.346.229a.958.958,0,0,1,.124.1l.1.069.12.07.111.054a3.7,3.7,0,0,0,3.162-.128c1.256-.656,1.876-1.818,2.019-3.771.3-3.9-.6-5.767-2.993-6.233m4.839,9.121h.129c.1,0,.2-.006.2-.123s-.09-.116-.17-.116h-.161Zm-.106-.334h.276c.181,0,.265.066.265.215a.193.193,0,0,1-.2.2l.218.333h-.114l-.206-.323h-.134v.323h-.106v-.752Zm.244.926a.553.553,0,1,0-.01,0h.01Zm0-1.2a.649.649,0,1,1-.655.653.648.648,0,0,1,.655-.653" transform="translate(-81.604 -1048.919)" fill="#626162"/>
  </g>
</svg>
